<svg xmlns="http://www.w3.org/2000/svg" width="1200" height="750" viewBox="0 0 1200 750" role="img">
<defs>
  <radialGradient id="bgs2" cx="30%" cy="35%" r="95%"><stop offset="0" stop-color="#f8fcfb"/><stop offset=".4" stop-color="#e3faf5"/><stop offset="1" stop-color="#c6f0ef"/></radialGradient>
  <radialGradient id="glows2" cx="50%" cy="50%" r="50%"><stop offset="0" stop-color="#69c9dd" stop-opacity=".5"/><stop offset=".6" stop-color="#69c9dd" stop-opacity=".12"/><stop offset="1" stop-color="#69c9dd" stop-opacity="0"/></radialGradient>
  <radialGradient id="cytos2" cx="38%" cy="36%" r="72%"><stop offset="0" stop-color="#f8fcfb" stop-opacity=".92"/><stop offset=".65" stop-color="#c6f0ef" stop-opacity=".6"/><stop offset="1" stop-color="#69c9dd" stop-opacity=".42"/></radialGradient>
  <radialGradient id="nucs2" cx="38%" cy="34%" r="72%"><stop offset="0" stop-color="#4a92d0"/><stop offset=".5" stop-color="#175998"/><stop offset="1" stop-color="#08283d"/></radialGradient>
  <radialGradient id="depths2" cx="50%" cy="50%" r="50%"><stop offset="0" stop-color="#175998" stop-opacity=".28"/><stop offset="1" stop-color="#175998" stop-opacity="0"/></radialGradient>
  <filter id="b3s2" x="-20%" y="-20%" width="140%" height="140%"><feGaussianBlur stdDeviation="3"/></filter>
  <filter id="b9s2" x="-30%" y="-30%" width="160%" height="160%"><feGaussianBlur stdDeviation="9"/></filter>
  <filter id="b28s2" x="-50%" y="-50%" width="200%" height="200%"><feGaussianBlur stdDeviation="28"/></filter>
</defs>
<rect width="1200" height="750" fill="url(#bgs2)"/><ellipse cx="200" cy="640" rx="420" ry="300" fill="url(#glows2)"/><ellipse cx="1060" cy="90" rx="360" ry="260" fill="url(#glows2)" opacity=".7"/><circle cx="-60" cy="560" r="300" fill="none" stroke="#f8fcfb" stroke-opacity="0.5" stroke-width="3"/><circle cx="-60" cy="560" r="291" fill="none" stroke="#f8fcfb" stroke-opacity="0.4" stroke-width="1.5"/><circle cx="-60" cy="560" r="282" fill="none" stroke="#f8fcfb" stroke-opacity="0.3" stroke-width="1.5"/><circle cx="-60" cy="560" r="273" fill="none" stroke="#f8fcfb" stroke-opacity="0.2" stroke-width="1.5"/><circle cx="-60" cy="560" r="90" fill="url(#depths2)" filter="url(#b28s2)"/><circle cx="1230" cy="720" r="330" fill="none" stroke="#f8fcfb" stroke-opacity="0.45" stroke-width="3"/><circle cx="1230" cy="720" r="321" fill="none" stroke="#f8fcfb" stroke-opacity="0.36" stroke-width="1.5"/><circle cx="1230" cy="720" r="312" fill="none" stroke="#f8fcfb" stroke-opacity="0.27" stroke-width="1.5"/><circle cx="1230" cy="720" r="303" fill="none" stroke="#f8fcfb" stroke-opacity="0.18" stroke-width="1.5"/><circle cx="1230" cy="720" r="99" fill="url(#depths2)" filter="url(#b28s2)"/><circle cx="1180" cy="-40" r="260" fill="none" stroke="#f8fcfb" stroke-opacity="0.4" stroke-width="3"/><circle cx="1180" cy="-40" r="251" fill="none" stroke="#f8fcfb" stroke-opacity="0.32" stroke-width="1.5"/><circle cx="1180" cy="-40" r="242" fill="none" stroke="#f8fcfb" stroke-opacity="0.24" stroke-width="1.5"/><circle cx="1180" cy="-40" r="233" fill="none" stroke="#f8fcfb" stroke-opacity="0.16" stroke-width="1.5"/><circle cx="1180" cy="-40" r="78" fill="url(#depths2)" filter="url(#b28s2)"/><circle cx="111.27" cy="51.23" r="3.21" fill="#69c9dd" fill-opacity="0.41"/><circle cx="257.13" cy="384.05" r="4.34" fill="#f8fcfb" fill-opacity="0.25"/><circle cx="850.42" cy="156.55" r="1.3" fill="#f8fcfb" fill-opacity="0.67"/><circle cx="566.69" cy="555.99" r="1.19" fill="#69c9dd" fill-opacity="0.58"/><circle cx="1182.7" cy="159.74" r="3.96" fill="#69c9dd" fill-opacity="0.35"/><circle cx="939.75" cy="117.9" r="3.5" fill="#69c9dd" fill-opacity="0.5"/><circle cx="1135.23" cy="573.82" r="4.13" fill="#f8fcfb" fill-opacity="0.57"/><circle cx="973.91" cy="531.45" r="1.76" fill="#69c9dd" fill-opacity="0.51"/><circle cx="1074.69" cy="713.88" r="3.83" fill="#f8fcfb" fill-opacity="0.41"/><circle cx="1088.68" cy="152.77" r="2.38" fill="#f8fcfb" fill-opacity="0.33"/><circle cx="816" cy="672.19" r="3.71" fill="#69c9dd" fill-opacity="0.54"/><circle cx="636.17" cy="563.39" r="2.27" fill="#69c9dd" fill-opacity="0.28"/><circle cx="13.13" cy="151.49" r="3.27" fill="#69c9dd" fill-opacity="0.54"/><circle cx="1124.84" cy="520.99" r="1.64" fill="#69c9dd" fill-opacity="0.62"/><circle cx="661.71" cy="230.37" r="1.24" fill="#f8fcfb" fill-opacity="0.62"/><circle cx="1007.05" cy="530.05" r="1.08" fill="#69c9dd" fill-opacity="0.58"/><circle cx="756.82" cy="163.92" r="2.45" fill="#69c9dd" fill-opacity="0.37"/><circle cx="666.93" cy="746.09" r="1.08" fill="#f8fcfb" fill-opacity="0.5"/><circle cx="133.79" cy="723.91" r="3.03" fill="#f8fcfb" fill-opacity="0.74"/><circle cx="951.62" cy="632.87" r="1.66" fill="#69c9dd" fill-opacity="0.64"/><circle cx="745.49" cy="440.81" r="3.46" fill="#f8fcfb" fill-opacity="0.55"/><circle cx="712.98" cy="167.67" r="3.59" fill="#69c9dd" fill-opacity="0.74"/><circle cx="862.45" cy="66.69" r="1.51" fill="#f8fcfb" fill-opacity="0.33"/><circle cx="528.81" cy="47.35" r="1.94" fill="#69c9dd" fill-opacity="0.67"/><circle cx="661.39" cy="191.11" r="3.05" fill="#f8fcfb" fill-opacity="0.32"/><circle cx="284.48" cy="400.58" r="1.29" fill="#69c9dd" fill-opacity="0.5"/><circle cx="722.29" cy="338.76" r="1.06" fill="#69c9dd" fill-opacity="0.56"/><circle cx="494.58" cy="372.21" r="2.71" fill="#69c9dd" fill-opacity="0.66"/><circle cx="1096.36" cy="184.46" r="3.76" fill="#f8fcfb" fill-opacity="0.43"/><circle cx="304.25" cy="345.93" r="2.62" fill="#f8fcfb" fill-opacity="0.34"/><circle cx="146.79" cy="113.27" r="3.89" fill="#69c9dd" fill-opacity="0.61"/><circle cx="938.42" cy="575.77" r="1.44" fill="#f8fcfb" fill-opacity="0.67"/><circle cx="794.12" cy="741.08" r="1.4" fill="#f8fcfb" fill-opacity="0.33"/><circle cx="943.16" cy="605.14" r="2.08" fill="#f8fcfb" fill-opacity="0.56"/><circle cx="800.12" cy="670.02" r="2.01" fill="#69c9dd" fill-opacity="0.3"/><circle cx="1013.52" cy="518.16" r="4.34" fill="#69c9dd" fill-opacity="0.33"/><circle cx="1031.33" cy="200.24" r="1.45" fill="#69c9dd" fill-opacity="0.55"/><circle cx="24.15" cy="677.89" r="1.98" fill="#f8fcfb" fill-opacity="0.45"/><circle cx="85.08" cy="174.81" r="4.05" fill="#f8fcfb" fill-opacity="0.32"/><circle cx="526.04" cy="336.42" r="2.14" fill="#69c9dd" fill-opacity="0.66"/><circle cx="412.33" cy="356.92" r="2.35" fill="#f8fcfb" fill-opacity="0.48"/><circle cx="396.31" cy="644.51" r="1.81" fill="#f8fcfb" fill-opacity="0.31"/><circle cx="990.04" cy="223.81" r="4.34" fill="#69c9dd" fill-opacity="0.43"/><circle cx="11.38" cy="717.22" r="2.31" fill="#f8fcfb" fill-opacity="0.56"/><circle cx="1132.18" cy="156.81" r="4.1" fill="#69c9dd" fill-opacity="0.28"/><circle cx="470.8" cy="235.38" r="1.18" fill="#69c9dd" fill-opacity="0.34"/><ellipse cx="800" cy="375" rx="316.8" ry="306.24" fill="url(#glows2)"/><ellipse cx="800" cy="375" rx="240" ry="232" fill="url(#cytos2)"/><ellipse cx="800" cy="375" rx="240" ry="232" transform="rotate(0.15 800 375)" fill="none" stroke="#f8fcfb" stroke-opacity="0.95" stroke-width="5"/><ellipse cx="800" cy="375" rx="229.2" ry="221.56" transform="rotate(1.68 800 375)" fill="none" stroke="#f8fcfb" stroke-opacity="0.75" stroke-width="2"/><ellipse cx="800" cy="375" rx="218.4" ry="211.12" transform="rotate(2.65 800 375)" fill="none" stroke="#f8fcfb" stroke-opacity="0.55" stroke-width="2"/><ellipse cx="800" cy="375" rx="207.6" ry="200.68" transform="rotate(-1.89 800 375)" fill="none" stroke="#f8fcfb" stroke-opacity="0.35" stroke-width="2"/><ellipse cx="800" cy="375" rx="243.6" ry="235.48" fill="none" stroke="#69c9dd" stroke-opacity=".55" stroke-width="2.5" filter="url(#b3s2)"/><circle cx="867.26" cy="177.4" r="1.92" fill="#f8fcfb" fill-opacity="0.74"/><circle cx="843.17" cy="197.48" r="1.51" fill="#69c9dd" fill-opacity="0.69"/><circle cx="671.34" cy="273.36" r="1.22" fill="#f8fcfb" fill-opacity="0.55"/><circle cx="694.04" cy="348.78" r="1.75" fill="#f8fcfb" fill-opacity="0.59"/><circle cx="599.31" cy="321.2" r="2.69" fill="#f8fcfb" fill-opacity="0.31"/><circle cx="744.29" cy="274.32" r="1.68" fill="#f8fcfb" fill-opacity="0.31"/><circle cx="613.55" cy="311.34" r="2.1" fill="#69c9dd" fill-opacity="0.62"/><circle cx="784.12" cy="384.33" r="1.68" fill="#f8fcfb" fill-opacity="0.35"/><circle cx="691.38" cy="389.54" r="1.31" fill="#f8fcfb" fill-opacity="0.68"/><circle cx="894.26" cy="498.23" r="2.77" fill="#69c9dd" fill-opacity="0.57"/><circle cx="697.13" cy="325.63" r="2.94" fill="#69c9dd" fill-opacity="0.44"/><circle cx="897.54" cy="416.85" r="2.92" fill="#f8fcfb" fill-opacity="0.56"/><circle cx="692.28" cy="549.83" r="2.46" fill="#f8fcfb" fill-opacity="0.57"/><circle cx="783.96" cy="412.08" r="2.13" fill="#69c9dd" fill-opacity="0.51"/><circle cx="798.4" cy="296.94" r="1.46" fill="#f8fcfb" fill-opacity="0.33"/><circle cx="786.22" cy="263.14" r="2.53" fill="#69c9dd" fill-opacity="0.39"/><circle cx="741.12" cy="267.3" r="1.65" fill="#f8fcfb" fill-opacity="0.35"/><circle cx="787.57" cy="546.64" r="3.19" fill="#f8fcfb" fill-opacity="0.34"/><circle cx="866.68" cy="349.84" r="2.11" fill="#f8fcfb" fill-opacity="0.49"/><circle cx="852.41" cy="487.07" r="3.19" fill="#f8fcfb" fill-opacity="0.65"/><circle cx="1013.62" cy="346.31" r="1.26" fill="#69c9dd" fill-opacity="0.65"/><circle cx="836.17" cy="259.13" r="1.92" fill="#f8fcfb" fill-opacity="0.48"/><circle cx="817.77" cy="485.36" r="2.56" fill="#f8fcfb" fill-opacity="0.73"/><circle cx="705.93" cy="385.25" r="1.95" fill="#69c9dd" fill-opacity="0.6"/><circle cx="637.15" cy="376.02" r="2.71" fill="#f8fcfb" fill-opacity="0.39"/><circle cx="764.82" cy="249.13" r="2.91" fill="#f8fcfb" fill-opacity="0.6"/><circle cx="770.96" cy="540.02" r="1.67" fill="#f8fcfb" fill-opacity="0.72"/><circle cx="673.21" cy="213.55" r="2.02" fill="#69c9dd" fill-opacity="0.47"/><circle cx="888.64" cy="406.47" r="1.85" fill="#f8fcfb" fill-opacity="0.37"/><circle cx="980.06" cy="294.5" r="2" fill="#69c9dd" fill-opacity="0.5"/><circle cx="865.37" cy="253.95" r="3.01" fill="#69c9dd" fill-opacity="0.69"/><circle cx="838.9" cy="474.53" r="1.72" fill="#f8fcfb" fill-opacity="0.55"/><circle cx="954.41" cy="349.82" r="3.16" fill="#f8fcfb" fill-opacity="0.32"/><circle cx="727.28" cy="180.56" r="2.17" fill="#f8fcfb" fill-opacity="0.61"/><circle cx="997.51" cy="290.39" r="2.19" fill="#f8fcfb" fill-opacity="0.36"/><circle cx="863.45" cy="519.23" r="2.38" fill="#69c9dd" fill-opacity="0.52"/><circle cx="690.51" cy="204.91" r="3.13" fill="#69c9dd" fill-opacity="0.72"/><circle cx="636.79" cy="350.85" r="1.29" fill="#f8fcfb" fill-opacity="0.41"/><circle cx="784.28" cy="175.6" r="2.48" fill="#f8fcfb" fill-opacity="0.79"/><circle cx="751.07" cy="279.31" r="2.86" fill="#69c9dd" fill-opacity="0.44"/><circle cx="743.87" cy="386.08" r="2.94" fill="#69c9dd" fill-opacity="0.43"/><circle cx="935.51" cy="351.35" r="1.9" fill="#f8fcfb" fill-opacity="0.33"/><circle cx="899.08" cy="325.45" r="1.06" fill="#f8fcfb" fill-opacity="0.36"/><circle cx="890.27" cy="371.96" r="2.46" fill="#f8fcfb" fill-opacity="0.38"/><circle cx="918.45" cy="552.42" r="1.49" fill="#69c9dd" fill-opacity="0.3"/><circle cx="957.65" cy="442.58" r="2.63" fill="#f8fcfb" fill-opacity="0.34"/><circle cx="975.2" cy="302.93" r="2.05" fill="#69c9dd" fill-opacity="0.8"/><circle cx="684.4" cy="540.21" r="2.75" fill="#f8fcfb" fill-opacity="0.77"/><circle cx="800.41" cy="354.35" r="2" fill="#f8fcfb" fill-opacity="0.52"/><circle cx="760.66" cy="275.31" r="1.85" fill="#f8fcfb" fill-opacity="0.51"/><circle cx="851.27" cy="329.94" r="1.25" fill="#f8fcfb" fill-opacity="0.62"/><circle cx="602.77" cy="413.14" r="1.78" fill="#f8fcfb" fill-opacity="0.31"/><circle cx="939.83" cy="384.14" r="2.51" fill="#69c9dd" fill-opacity="0.62"/><circle cx="666.73" cy="359.2" r="2.19" fill="#69c9dd" fill-opacity="0.35"/><circle cx="740.87" cy="219.47" r="2.32" fill="#f8fcfb" fill-opacity="0.34"/><circle cx="739.9" cy="243.53" r="1.47" fill="#f8fcfb" fill-opacity="0.31"/><circle cx="716.16" cy="497.97" r="1.08" fill="#f8fcfb" fill-opacity="0.59"/><circle cx="852.16" cy="335.08" r="1.37" fill="#f8fcfb" fill-opacity="0.75"/><circle cx="842.98" cy="391.99" r="2.3" fill="#f8fcfb" fill-opacity="0.8"/><circle cx="696.28" cy="377.2" r="2.49" fill="#69c9dd" fill-opacity="0.76"/><circle cx="968.2" cy="327.92" r="1.02" fill="#f8fcfb" fill-opacity="0.6"/><circle cx="804.58" cy="356.49" r="1.67" fill="#f8fcfb" fill-opacity="0.5"/><circle cx="828.14" cy="206.88" r="1.9" fill="#69c9dd" fill-opacity="0.77"/><circle cx="813.4" cy="439.03" r="1.37" fill="#69c9dd" fill-opacity="0.32"/><circle cx="867.27" cy="283.38" r="1.7" fill="#f8fcfb" fill-opacity="0.45"/><circle cx="963.45" cy="279.22" r="2.44" fill="#69c9dd" fill-opacity="0.43"/><circle cx="614.08" cy="474.55" r="1.77" fill="#f8fcfb" fill-opacity="0.57"/><circle cx="880" cy="506.24" r="1.05" fill="#69c9dd" fill-opacity="0.43"/><circle cx="805.82" cy="294.9" r="2.89" fill="#f8fcfb" fill-opacity="0.76"/><circle cx="713.61" cy="343.68" r="3.05" fill="#f8fcfb" fill-opacity="0.3"/><circle cx="792" cy="379" r="147.5" fill="url(#depths2)" filter="url(#b9s2)"/><circle cx="792" cy="379" r="118" fill="url(#nucs2)" fill-opacity="0.78"/><circle cx="792" cy="379" r="118" fill="none" stroke="#f8fcfb" stroke-opacity="0.75" stroke-width="3" stroke-dasharray="14 10"/><circle cx="756.6" cy="341.24" r="49.56" fill="#f8fcfb" fill-opacity=".14" filter="url(#b9s2)"/><path d="M722.79 323.22 L765.21 362.78" stroke="#08283d" stroke-width="15.08" stroke-linecap="round" fill="none"/><path d="M715.74 349.52 L772.26 336.48" stroke="#08283d" stroke-width="15.08" stroke-linecap="round" fill="none"/><path d="M722.79 323.22 L765.21 362.78" stroke="#3f86c7" stroke-opacity=".55" stroke-width="4.52" stroke-linecap="round" fill="none" transform="translate(-2.71 -2.71)"/><path d="M715.74 349.52 L772.26 336.48" stroke="#3f86c7" stroke-opacity=".55" stroke-width="4.52" stroke-linecap="round" fill="none" transform="translate(-2.71 -2.71)"/><circle cx="744" cy="343" r="6.33" fill="#69c9dd"/><path d="M799.02 337.94 L852.98 336.06" stroke="#08283d" stroke-width="14.04" stroke-linecap="round" fill="none"/><path d="M811.69 359.9 L840.31 314.1" stroke="#08283d" stroke-width="14.04" stroke-linecap="round" fill="none"/><path d="M799.02 337.94 L852.98 336.06" stroke="#3f86c7" stroke-opacity=".55" stroke-width="4.21" stroke-linecap="round" fill="none" transform="translate(-2.53 -2.53)"/><path d="M811.69 359.9 L840.31 314.1" stroke="#3f86c7" stroke-opacity=".55" stroke-width="4.21" stroke-linecap="round" fill="none" transform="translate(-2.53 -2.53)"/><circle cx="826" cy="337" r="5.9" fill="#69c9dd"/><path d="M765.9 393.27 L758.1 448.73" stroke="#08283d" stroke-width="14.56" stroke-linecap="round" fill="none"/><path d="M741.19 402.26 L782.81 439.74" stroke="#08283d" stroke-width="14.56" stroke-linecap="round" fill="none"/><path d="M765.9 393.27 L758.1 448.73" stroke="#3f86c7" stroke-opacity=".55" stroke-width="4.37" stroke-linecap="round" fill="none" transform="translate(-2.62 -2.62)"/><path d="M741.19 402.26 L782.81 439.74" stroke="#3f86c7" stroke-opacity=".55" stroke-width="4.37" stroke-linecap="round" fill="none" transform="translate(-2.62 -2.62)"/><circle cx="762" cy="421" r="6.12" fill="#69c9dd"/><path d="M815.51 398.99 L856.49 431.01" stroke="#08283d" stroke-width="13.52" stroke-linecap="round" fill="none"/><path d="M811.27 423.03 L860.73 406.97" stroke="#08283d" stroke-width="13.52" stroke-linecap="round" fill="none"/><path d="M815.51 398.99 L856.49 431.01" stroke="#3f86c7" stroke-opacity=".55" stroke-width="4.06" stroke-linecap="round" fill="none" transform="translate(-2.43 -2.43)"/><path d="M811.27 423.03 L860.73 406.97" stroke="#3f86c7" stroke-opacity=".55" stroke-width="4.06" stroke-linecap="round" fill="none" transform="translate(-2.43 -2.43)"/><circle cx="836" cy="415" r="5.68" fill="#69c9dd"/><line x1="640" y1="225" x2="669.97" y2="227.65" stroke="#69c9dd" stroke-opacity=".8" stroke-width="1.6" stroke-linecap="round"/><line x1="640" y1="225" x2="668.88" y2="243.16" stroke="#69c9dd" stroke-opacity=".8" stroke-width="1.6" stroke-linecap="round"/><line x1="640" y1="225" x2="652.89" y2="257.63" stroke="#69c9dd" stroke-opacity=".8" stroke-width="1.6" stroke-linecap="round"/><line x1="640" y1="225" x2="631.51" y2="248.47" stroke="#69c9dd" stroke-opacity=".8" stroke-width="1.6" stroke-linecap="round"/><line x1="640" y1="225" x2="615.8" y2="249.22" stroke="#69c9dd" stroke-opacity=".8" stroke-width="1.6" stroke-linecap="round"/><line x1="640" y1="225" x2="617.15" y2="224.58" stroke="#69c9dd" stroke-opacity=".8" stroke-width="1.6" stroke-linecap="round"/><line x1="640" y1="225" x2="610.66" y2="214.42" stroke="#69c9dd" stroke-opacity=".8" stroke-width="1.6" stroke-linecap="round"/><line x1="640" y1="225" x2="625.18" y2="187.97" stroke="#69c9dd" stroke-opacity=".8" stroke-width="1.6" stroke-linecap="round"/><line x1="640" y1="225" x2="643.79" y2="192.4" stroke="#69c9dd" stroke-opacity=".8" stroke-width="1.6" stroke-linecap="round"/><line x1="640" y1="225" x2="654.13" y2="192.58" stroke="#69c9dd" stroke-opacity=".8" stroke-width="1.6" stroke-linecap="round"/><line x1="640" y1="225" x2="673.95" y2="217.55" stroke="#69c9dd" stroke-opacity=".8" stroke-width="1.6" stroke-linecap="round"/><circle cx="640" cy="225" r="7" fill="#175998"/><circle cx="640" cy="225" r="11" fill="none" stroke="#f8fcfb" stroke-opacity=".8" stroke-width="2"/><line x1="958" y1="525" x2="989.07" y2="532.31" stroke="#69c9dd" stroke-opacity=".8" stroke-width="1.6" stroke-linecap="round"/><line x1="958" y1="525" x2="980.06" y2="546.74" stroke="#69c9dd" stroke-opacity=".8" stroke-width="1.6" stroke-linecap="round"/><line x1="958" y1="525" x2="963.5" y2="567.61" stroke="#69c9dd" stroke-opacity=".8" stroke-width="1.6" stroke-linecap="round"/><line x1="958" y1="525" x2="946.9" y2="557.6" stroke="#69c9dd" stroke-opacity=".8" stroke-width="1.6" stroke-linecap="round"/><line x1="958" y1="525" x2="942.23" y2="541.7" stroke="#69c9dd" stroke-opacity=".8" stroke-width="1.6" stroke-linecap="round"/><line x1="958" y1="525" x2="915.12" y2="525.54" stroke="#69c9dd" stroke-opacity=".8" stroke-width="1.6" stroke-linecap="round"/><line x1="958" y1="525" x2="934.02" y2="513.98" stroke="#69c9dd" stroke-opacity=".8" stroke-width="1.6" stroke-linecap="round"/><line x1="958" y1="525" x2="943.91" y2="506.08" stroke="#69c9dd" stroke-opacity=".8" stroke-width="1.6" stroke-linecap="round"/><line x1="958" y1="525" x2="960.42" y2="491.67" stroke="#69c9dd" stroke-opacity=".8" stroke-width="1.6" stroke-linecap="round"/><line x1="958" y1="525" x2="979.19" y2="498.42" stroke="#69c9dd" stroke-opacity=".8" stroke-width="1.6" stroke-linecap="round"/><line x1="958" y1="525" x2="987.47" y2="503.76" stroke="#69c9dd" stroke-opacity=".8" stroke-width="1.6" stroke-linecap="round"/><circle cx="958" cy="525" r="7" fill="#175998"/><circle cx="958" cy="525" r="11" fill="none" stroke="#f8fcfb" stroke-opacity=".8" stroke-width="2"/><text x="1152" y="710" text-anchor="end" font-family="ui-monospace, 'JetBrains Mono', Consolas, monospace" font-size="18" letter-spacing="2.4" fill="#08283d" fill-opacity=".55">CELL CYCLE MOTIF · PROPHASE</text>
</svg>
